<?xml version="1.0" encoding="UTF-8"?>
<svg width="297px" height="48px" viewBox="0 0 297 48" version="1.1" xmlns="http://www.w3.org/2000/svg" xmlns:xlink="http://www.w3.org/1999/xlink">
    <!-- Generator: Sketch 42 (36781) - http://www.bohemiancoding.com/sketch -->
    <title>Logo Portraitnew</title>
    <desc>Created with Sketch.</desc>
    <defs></defs>
    <g id="Page-1" stroke="none" stroke-width="1" fill="none" fill-rule="evenodd">
        <g id="Logo-Portrait" fill="#050000">
            <g id="cbo_logo_black_desktop">
                <g id="Logo" transform="translate(51.000000, 6.000000)">
                    <g id="Nonpartisan-Analysis" transform="translate(69.000000, 23.000000)" font-size="9" font-family="ArialMT, Arial" font-weight="normal">
                        <text id="Nonpartisan-Analysis-for-the-U.S.-Congress">
                            <tspan x="-1.42108547e-14" y="8">Nonpartisan Analysis for the U.S. Congress</tspan>
                        </text>
                    </g>
                    <g id="Congressional-Budget">
                        <path d="M1.79084856,1.72163702 C2.82902683,0.671923438 4.14980048,0.147074519 5.75320914,0.147074519 C7.89877756,0.147074519 9.46755675,0.850718124 10.4595938,2.25802644 C11.0075212,3.04819546 11.3016673,3.84123641 11.3420409,4.63717308 L8.67739664,4.63717308 C8.50436693,4.02580143 8.28231546,3.56439579 8.01123558,3.25294231 C7.52675239,2.69924723 6.80868986,2.42240385 5.85702645,2.42240385 C4.88806006,2.42240385 4.12385697,2.81315675 3.56439423,3.59467428 C3.0049315,4.37619181 2.72520433,5.48212346 2.72520433,6.91250241 C2.72520433,8.34288136 3.02079232,9.41420758 3.61197717,10.1265132 C4.20316201,10.8388189 4.95438808,11.1949664 5.86567789,11.1949664 C6.80003833,11.1949664 7.51233329,10.8892851 8.00258414,10.2779135 C8.27366402,9.94915702 8.49859927,9.45602974 8.67739664,8.79851683 L11.3160865,8.79851683 C11.0853803,10.1885222 10.4956462,11.318966 9.54686659,12.1898822 C8.59808701,13.0607984 7.38257152,13.49625 5.90028366,13.49625 C4.06616872,13.49625 2.62427608,12.9079578 1.5745625,11.7313558 C0.524848919,10.5489861 0,8.92829876 0,6.8692452 C0,4.64292958 0.59694355,2.92707734 1.79084856,1.72163702 Z M19.0418245,10.6326226 C19.4282576,10.1193011 19.6214712,9.38970345 19.6214712,8.4438077 C19.6214712,7.49791194 19.4282576,6.76975616 19.0418245,6.25931851 C18.6553915,5.74888087 18.1017047,5.49366587 17.3807476,5.49366587 C16.6597905,5.49366587 16.1046618,5.74888087 15.715345,6.25931851 C15.3260281,6.76975616 15.1313726,7.49791194 15.1313726,8.4438077 C15.1313726,9.38970345 15.3260281,10.1193011 15.715345,10.6326226 C16.1046618,11.1459441 16.6597905,11.402601 17.3807476,11.402601 C18.1017047,11.402601 18.6553915,11.1459441 19.0418245,10.6326226 Z M21.0143534,11.9952248 C20.2184167,12.9786103 19.0101107,13.4702957 17.3893991,13.4702957 C15.7686874,13.4702957 14.5603814,12.9786103 13.7644447,11.9952248 C12.968508,11.0118392 12.5705457,9.82804539 12.5705457,8.4438077 C12.5705457,7.08264064 12.968508,5.90317246 13.7644447,4.90536779 C14.5603814,3.90756312 15.7686874,3.40866827 17.3893991,3.40866827 C19.0101107,3.40866827 20.2184167,3.90756312 21.0143534,4.90536779 C21.8102901,5.90317246 22.2082524,7.08264064 22.2082524,8.4438077 C22.2082524,9.82804539 21.8102901,11.0118392 21.0143534,11.9952248 Z M31.5907416,4.2521839 C32.2107647,4.76262155 32.5207717,5.60901252 32.5207717,6.79138222 L32.5207717,13.1415409 L29.9945505,13.1415409 L29.9945505,7.40563462 C29.9945505,6.90961611 29.9282234,6.52895646 29.7955673,6.26364424 C29.5533257,5.77916104 29.0919201,5.53692308 28.4113366,5.53692308 C27.5750263,5.53692308 27.001153,5.89162867 26.6896995,6.60105049 C26.5282051,6.97594819 26.4474592,7.45465655 26.4474592,8.03718991 L26.4474592,13.1415409 L23.9904495,13.1415409 L23.9904495,3.72877164 L26.3695962,3.72877164 L26.3695962,5.10435097 C26.6868173,4.61986777 26.986731,4.27092976 27.2693462,4.05752645 C27.7769,3.67686108 28.4199841,3.48653125 29.1986178,3.48653125 C30.1733519,3.48653125 30.9707185,3.74174625 31.5907416,4.2521839 Z M40.3070697,10.4639195 C40.7050381,10.0284614 40.9040193,9.33491102 40.9040193,8.3832476 C40.9040193,7.48926076 40.7151313,6.80868744 40.3373498,6.34150722 C39.9595683,5.874327 39.4534639,5.64074039 38.8190217,5.64074039 C37.9538731,5.64074039 37.3569296,6.04735411 37.0281731,6.86059376 C36.8551434,7.29316803 36.7686298,7.82666831 36.7686298,8.46111058 C36.7686298,9.009038 36.860911,9.49639771 37.045476,9.92320433 C37.3800001,10.719141 37.9798274,11.1171034 38.844976,11.1171034 C39.4217417,11.1171034 39.9091014,10.8993776 40.3070697,10.4639195 Z M39.4678798,3.70281731 C40.0677162,3.95082656 40.5521921,4.40646464 40.9213221,5.0697452 L40.9213221,3.71146875 L43.3177717,3.71146875 L43.3177717,12.6570601 C43.3177717,13.8740357 43.1130229,14.7910795 42.7035193,15.4082188 C41.9998651,16.4694677 40.6502536,17.0000841 38.6546443,17.0000841 C37.4492039,17.0000841 36.4658332,16.7636138 35.7045024,16.2906659 C34.9431717,15.817718 34.5221391,15.1111906 34.4413919,14.1710625 L37.123339,14.1710625 C37.1925509,14.4594454 37.3050185,14.6670779 37.4607452,14.7939664 C37.7260574,15.018905 38.1730442,15.1313726 38.8017188,15.1313726 C39.689938,15.1313726 40.2839977,14.8343427 40.5839159,14.240274 C40.7800162,13.8596087 40.8780649,13.2194084 40.8780649,12.3196539 L40.8780649,11.7140529 C40.641591,12.1177889 40.3878179,12.4205863 40.116738,12.6224543 C39.6264872,12.997352 38.9891706,13.1847981 38.2047693,13.1847981 C36.9935613,13.1847981 36.0260513,12.7594398 35.3022104,11.9087103 C34.5783694,11.0579809 34.2164544,9.90590872 34.2164544,8.45245914 C34.2164544,7.05091848 34.5653924,5.8728922 35.2632789,4.91834496 C35.9611654,3.96379771 36.9503037,3.48653125 38.2307236,3.48653125 C38.7036715,3.48653125 39.1160528,3.55862588 39.4678798,3.70281731 Z M50.8575036,3.49085697 C50.8892258,3.4937408 50.9598785,3.49806648 51.069464,3.50383414 L51.069464,6.03005529 C50.9137372,6.01275232 50.7753155,6.00121718 50.6541947,5.99544952 C50.533074,5.98968187 50.4350253,5.98679808 50.3600457,5.98679808 C49.3680087,5.98679808 48.7018543,6.30978203 48.3615625,6.95575962 C48.1712299,7.31912201 48.0760649,7.87857636 48.0760649,8.63413943 L48.0760649,13.1415409 L45.593101,13.1415409 L45.593101,3.71146875 L47.9462933,3.71146875 L47.9462933,5.35524279 C48.3269587,4.72656817 48.658594,4.29688417 48.9412092,4.06617789 C49.4026217,3.67974487 50.0024491,3.48653125 50.7407092,3.48653125 C50.7868504,3.48653125 50.8257815,3.48797315 50.8575036,3.49085697 Z M54.9063786,6.03005529 C54.5920413,6.38765003 54.394502,6.87212595 54.3137548,7.4834976 L58.1463438,7.4834976 C58.1059702,6.83175236 57.9084309,6.33718318 57.55372,5.99977524 C57.1990091,5.66236731 56.7592318,5.49366587 56.234375,5.49366587 C55.663377,5.49366587 55.220716,5.67246056 54.9063786,6.03005529 Z M58.3539784,3.90180048 C58.982653,4.19595099 59.5017344,4.66024042 59.911238,5.2946827 C60.2803681,5.85414543 60.5197223,6.50299711 60.6293077,7.24125722 C60.692752,7.6738315 60.718706,8.29672911 60.7071707,9.10996876 L54.2531948,9.10996876 C54.2878007,10.0558645 54.5848306,10.7191351 55.1442933,11.0998005 C55.4845851,11.3362744 55.8940826,11.4545096 56.3727981,11.4545096 C56.8803519,11.4545096 57.2927332,11.3103204 57.6099544,11.0219375 C57.7829841,10.8662108 57.9358247,10.6499269 58.0684808,10.3730793 L60.5860505,10.3730793 C60.5226063,10.9325421 60.231344,11.5006478 59.7122549,12.0774135 C58.9047829,12.9944709 57.774339,13.4529928 56.3208895,13.4529928 C55.1212168,13.4529928 54.0628676,13.0665656 53.1458101,12.2936995 C52.2287527,11.5208335 51.7702308,10.2635031 51.7702308,8.52167068 C51.7702308,6.88942374 52.184054,5.63786093 53.0117128,4.76694472 C53.8393716,3.8960285 54.9135816,3.46057693 56.234375,3.46057693 C57.0187764,3.46057693 57.7253038,3.60764997 58.3539784,3.90180048 Z M64.2888678,10.1308389 C64.3407768,10.5691809 64.4532444,10.8806297 64.6262741,11.0651947 C64.9319599,11.3939512 65.4971818,11.5583269 66.3219568,11.5583269 C66.80644,11.5583269 67.1914253,11.4862323 67.4769243,11.3420409 C67.7624234,11.1978494 67.9051707,10.9815656 67.9051707,10.6931827 C67.9051707,10.4163352 67.7898193,10.2058188 67.559113,10.0616274 C67.3284067,9.91743599 66.4719225,9.66943045 64.9896347,9.31760337 C63.9226181,9.05229115 63.1699502,8.72065584 62.7316082,8.32268751 C62.2932663,7.93048683 62.0740986,7.36526491 62.0740986,6.62700481 C62.0740986,5.7560886 62.4158272,5.00774632 63.0992945,4.38195553 C63.7827619,3.75616474 64.7445043,3.44327404 65.9845505,3.44327404 C67.1611526,3.44327404 68.1200112,3.67830254 68.8611551,4.14836659 C69.602299,4.61843064 70.0276574,5.43021619 70.1372428,6.5837476 L67.6715818,6.5837476 C67.6369758,6.26652646 67.5475785,6.01563715 67.4033871,5.83107212 C67.1323072,5.49654801 66.6709015,5.32928847 66.0191563,5.32928847 C65.4827642,5.32928847 65.1006626,5.41291824 64.8728402,5.58018029 C64.6450177,5.74744235 64.5311082,5.94353975 64.5311082,6.16847837 C64.5311082,6.45109357 64.6522272,6.65584232 64.8944688,6.78273077 C65.1367104,6.91538689 65.9931946,7.14320592 67.4639472,7.46619472 C68.4444489,7.696901 69.1798141,8.04583902 69.670065,8.51301924 C70.1545481,8.98596712 70.3967861,9.57714309 70.3967861,10.2865649 C70.3967861,11.2209254 70.04929,11.9836866 69.3542873,12.5748714 C68.6592846,13.1660563 67.5850746,13.4616442 66.131625,13.4616442 C64.6493372,13.4616442 63.5549407,13.1487535 62.8484027,12.5229627 C62.1418647,11.897172 61.788601,11.0998053 61.788601,10.1308389 L64.2888678,10.1308389 Z M74.1428606,10.1308389 C74.1947695,10.5691809 74.3072372,10.8806297 74.4802669,11.0651947 C74.7859527,11.3939512 75.3511746,11.5583269 76.1759496,11.5583269 C76.6604328,11.5583269 77.0454181,11.4862323 77.3309171,11.3420409 C77.6164161,11.1978494 77.7591635,10.9815656 77.7591635,10.6931827 C77.7591635,10.4163352 77.6438121,10.2058188 77.4131058,10.0616274 C77.1823995,9.91743599 76.3259153,9.66943045 74.8436275,9.31760337 C73.7766109,9.05229115 73.023943,8.72065584 72.585601,8.32268751 C72.1472591,7.93048683 71.9280914,7.36526491 71.9280914,6.62700481 C71.9280914,5.7560886 72.26982,5.00774632 72.9532873,4.38195553 C73.6367547,3.75616474 74.5984971,3.44327404 75.8385433,3.44327404 C77.0151454,3.44327404 77.974004,3.67830254 78.7151479,4.14836659 C79.4562918,4.61843064 79.8816502,5.43021619 79.9912356,6.5837476 L77.5255746,6.5837476 C77.4909686,6.26652646 77.4015713,6.01563715 77.2573799,5.83107212 C76.9863,5.49654801 76.5248943,5.32928847 75.8731491,5.32928847 C75.336757,5.32928847 74.9546554,5.41291824 74.726833,5.58018029 C74.4990105,5.74744235 74.385101,5.94353975 74.385101,6.16847837 C74.385101,6.45109357 74.50622,6.65584232 74.7484616,6.78273077 C74.9907032,6.91538689 75.8471874,7.14320592 77.31794,7.46619472 C78.2984417,7.696901 79.0338069,8.04583902 79.5240578,8.51301924 C80.0085409,8.98596712 80.2507789,9.57714309 80.2507789,10.2865649 C80.2507789,11.2209254 79.9032828,11.9836866 79.2082801,12.5748714 C78.5132774,13.1660563 77.4390674,13.4616442 75.9856178,13.4616442 C74.50333,13.4616442 73.4089335,13.1487535 72.7023955,12.5229627 C71.9958575,11.897172 71.6425938,11.0998053 71.6425938,10.1308389 L74.1428606,10.1308389 Z M84.6111058,2.58678125 L82.110839,2.58678125 L82.110839,0.311451923 L84.6111058,0.311451923 L84.6111058,2.58678125 Z M82.110839,3.71146875 L84.6111058,3.71146875 L84.6111058,13.1415409 L82.110839,13.1415409 L82.110839,3.71146875 Z M92.8905361,10.6326226 C93.2769691,10.1193011 93.4701828,9.38970345 93.4701828,8.4438077 C93.4701828,7.49791194 93.2769691,6.76975616 92.8905361,6.25931851 C92.5041031,5.74888087 91.9504163,5.49366587 91.2294592,5.49366587 C90.5085021,5.49366587 89.9533734,5.74888087 89.5640566,6.25931851 C89.1747397,6.76975616 88.9800842,7.49791194 88.9800842,8.4438077 C88.9800842,9.38970345 89.1747397,10.1193011 89.5640566,10.6326226 C89.9533734,11.1459441 90.5085021,11.402601 91.2294592,11.402601 C91.9504163,11.402601 92.5041031,11.1459441 92.8905361,10.6326226 Z M94.863065,11.9952248 C94.0671283,12.9786103 92.8588223,13.4702957 91.2381106,13.4702957 C89.617399,13.4702957 88.409093,12.9786103 87.6131563,11.9952248 C86.8172196,11.0118392 86.4192573,9.82804539 86.4192573,8.4438077 C86.4192573,7.08264064 86.8172196,5.90317246 87.6131563,4.90536779 C88.409093,3.90756312 89.617399,3.40866827 91.2381106,3.40866827 C92.8588223,3.40866827 94.0671283,3.90756312 94.863065,4.90536779 C95.6590016,5.90317246 96.056964,7.08264064 96.056964,8.4438077 C96.056964,9.82804539 95.6590016,11.0118392 94.863065,11.9952248 Z M105.439453,4.2521839 C106.059476,4.76262155 106.369483,5.60901252 106.369483,6.79138222 L106.369483,13.1415409 L103.843262,13.1415409 L103.843262,7.40563462 C103.843262,6.90961611 103.776935,6.52895646 103.644279,6.26364424 C103.402037,5.77916104 102.940632,5.53692308 102.260048,5.53692308 C101.423738,5.53692308 100.849865,5.89162867 100.538411,6.60105049 C100.376917,6.97594819 100.296171,7.45465655 100.296171,8.03718991 L100.296171,13.1415409 L97.8391611,13.1415409 L97.8391611,3.72877164 L100.218308,3.72877164 L100.218308,5.10435097 C100.535529,4.61986777 100.835443,4.27092976 101.118058,4.05752645 C101.625612,3.67686108 102.268696,3.48653125 103.047329,3.48653125 C104.022063,3.48653125 104.81943,3.74174625 105.439453,4.2521839 Z M113.844329,8.55627645 C113.688603,8.65432662 113.531436,8.73363071 113.372826,8.79419111 C113.214215,8.85475151 112.996489,8.91098532 112.719642,8.96289424 L112.16595,9.06671155 C111.64686,9.15899406 111.274852,9.27146168 111.049914,9.4041178 C110.669248,9.62905642 110.478918,9.97799444 110.478918,10.4509423 C110.478918,10.8719813 110.595712,11.1762206 110.829302,11.3636695 C111.062892,11.5511183 111.346945,11.6448414 111.681469,11.6448414 C112.212093,11.6448414 112.700895,11.489117 113.147888,11.1776635 C113.594882,10.86621 113.827026,10.2981043 113.844329,9.47332933 L113.844329,8.55627645 Z M112.34763,7.40563462 C112.803275,7.34795805 113.129143,7.27586342 113.325243,7.18934856 C113.67707,7.03938948 113.852981,6.80580287 113.852981,6.48858174 C113.852981,6.10214871 113.718885,5.83539858 113.450689,5.68832332 C113.182493,5.54124807 112.788856,5.46771154 112.269767,5.46771154 C111.687234,5.46771154 111.274852,5.61190081 111.032611,5.90028366 C110.859581,6.11368697 110.74423,6.4020655 110.686553,6.76542789 L108.307406,6.76542789 C108.359315,5.94065293 108.590018,5.26296339 108.999522,4.73233895 C109.651267,3.90179633 110.770176,3.48653125 112.356281,3.48653125 C113.388692,3.48653125 114.305736,3.69128001 115.10744,4.10078366 C115.909144,4.51028731 116.30999,5.28314176 116.30999,6.4193702 L116.30999,10.7450914 C116.30999,11.0450095 116.315758,11.4083665 116.327293,11.8351731 C116.344596,12.1581619 116.393621,12.3773296 116.474368,12.4926827 C116.555115,12.6080358 116.676234,12.7032008 116.837728,12.7781803 L116.837728,13.1415409 L114.155781,13.1415409 C114.080802,12.9512082 114.028894,12.7724135 114.000055,12.6051515 C113.971217,12.4378894 113.948147,12.2475596 113.930844,12.0341563 C113.590552,12.4032863 113.198357,12.7176189 112.754248,12.9771635 C112.223623,13.2828493 111.623796,13.4356899 110.954748,13.4356899 C110.101134,13.4356899 109.396049,13.1920101 108.83947,12.704643 C108.282891,12.217276 108.004606,11.5266094 108.004606,10.6326226 C108.004606,9.47332354 108.451593,8.63414203 109.345579,8.11505289 C109.83583,7.8324377 110.556777,7.63057273 111.50844,7.50945193 L112.34763,7.40563462 Z M121.016375,13.1415409 L118.550714,13.1415409 L118.550714,0.389314904 L121.016375,0.389314904 L121.016375,13.1415409 Z M131.129911,2.60408414 L131.129911,5.41580289 L134.261733,5.41580289 C134.821196,5.41580289 135.275392,5.31054473 135.624335,5.10002524 C135.973279,4.88950576 136.147748,4.51605557 136.147748,3.97966346 C136.147748,3.38559479 135.917045,2.99339999 135.455632,2.80306731 C135.057664,2.6704112 134.550118,2.60408414 133.932978,2.60408414 L131.129911,2.60408414 Z M131.129911,7.52675481 L131.129911,10.9267716 L134.261733,10.9267716 C134.821196,10.9267716 135.256648,10.8517932 135.568101,10.7018341 C136.133331,10.4249866 136.415942,9.89437012 136.415942,9.10996876 C136.415942,8.4466882 136.141983,7.99105012 135.594055,7.74304087 C135.28837,7.6046171 134.858686,7.53252247 134.30499,7.52675481 L131.129911,7.52675481 Z M138.102974,1.74759135 C138.495174,2.28975111 138.691272,2.93860279 138.691272,3.69416587 C138.691272,4.47279957 138.495174,5.09858097 138.102974,5.57152885 C137.883803,5.83684107 137.560819,6.07907904 137.134012,6.29825 C137.785757,6.53472394 138.277443,6.90961603 138.609083,7.42293751 C138.940723,7.93625898 139.106541,8.5591566 139.106541,9.29164905 C139.106541,10.0472121 138.916211,10.7249017 138.535546,11.324738 C138.293304,11.7227063 137.990507,12.0572254 137.627144,12.3283053 C137.217641,12.6397588 136.734607,12.8531589 136.178028,12.968512 C135.621449,13.0838652 135.017296,13.1415409 134.365551,13.1415409 L128.586387,13.1415409 L128.586387,0.389314904 L134.78082,0.389314904 C136.343855,0.412385532 137.451228,0.865139819 138.102974,1.74759135 Z M143.59664,3.71146875 L143.59664,9.39546635 C143.59664,9.93185846 143.660083,10.3355884 143.786971,10.6066683 C144.01191,11.0853838 144.453129,11.324738 145.110642,11.324738 C145.95272,11.324738 146.529477,10.9844513 146.84093,10.3038678 C147.002425,9.93473775 147.083171,9.44737804 147.083171,8.84177405 L147.083171,3.71146875 L149.583438,3.71146875 L149.583438,13.1415409 L147.186988,13.1415409 L147.186988,11.8092188 C147.163917,11.838057 147.106242,11.9245706 147.013959,12.068762 C146.921677,12.2129535 146.812093,12.33984 146.685204,12.4494255 C146.298771,12.7954849 145.925321,13.0319553 145.564843,13.1588438 C145.204364,13.2857322 144.78189,13.3491755 144.297406,13.3491755 C142.901633,13.3491755 141.961519,12.8473969 141.477036,11.8438245 C141.205956,11.2901295 141.070418,10.4740182 141.070418,9.39546635 L141.070418,3.71146875 L143.59664,3.71146875 Z M156.963118,3.86286899 C157.407227,4.11376207 157.767701,4.4612582 158.044548,4.90536779 L158.044548,0.406617789 L160.544815,0.406617789 L160.544815,13.1415409 L158.148366,13.1415409 L158.148366,11.8351731 C157.796538,12.3946358 157.395692,12.8012495 156.945815,13.0550265 C156.495938,13.3088034 155.936483,13.4356899 155.267435,13.4356899 C154.165813,13.4356899 153.238676,12.9901451 152.485997,12.0990421 C151.733317,11.2079391 151.356983,10.0645182 151.356983,8.6687452 C151.356983,7.05956888 151.72755,5.79358715 152.468694,4.87076202 C153.209838,3.9479369 154.200418,3.48653125 155.440464,3.48653125 C156.011462,3.48653125 156.519008,3.61197591 156.963118,3.86286899 Z M157.568719,10.580714 C157.932081,10.0616248 158.11376,9.38970285 158.11376,8.56492789 C158.11376,7.41139648 157.822497,6.5866339 157.239964,6.09061539 C156.882369,5.79069722 156.467104,5.64074039 155.994156,5.64074039 C155.273199,5.64074039 154.744025,5.9132581 154.406617,6.45830169 C154.069209,7.00334528 153.900507,7.67959292 153.900507,8.48706491 C153.900507,9.35798112 154.072093,10.0544153 154.415268,10.5763882 C154.758444,11.0983612 155.278967,11.3593438 155.976853,11.3593438 C156.67474,11.3593438 157.205356,11.0998031 157.568719,10.580714 Z M168.296507,10.4639195 C168.694476,10.0284614 168.893457,9.33491102 168.893457,8.3832476 C168.893457,7.48926076 168.704569,6.80868744 168.326787,6.34150722 C167.949006,5.874327 167.442902,5.64074039 166.808459,5.64074039 C165.943311,5.64074039 165.346367,6.04735411 165.017611,6.86059376 C164.844581,7.29316803 164.758067,7.82666831 164.758067,8.46111058 C164.758067,9.009038 164.850349,9.49639771 165.034914,9.92320433 C165.369438,10.719141 165.969265,11.1171034 166.834414,11.1171034 C167.411179,11.1171034 167.898539,10.8993776 168.296507,10.4639195 Z M167.457317,3.70281731 C168.057154,3.95082656 168.54163,4.40646464 168.91076,5.0697452 L168.91076,3.71146875 L171.307209,3.71146875 L171.307209,12.6570601 C171.307209,13.8740357 171.102461,14.7910795 170.692957,15.4082188 C169.989303,16.4694677 168.639691,17.0000841 166.644082,17.0000841 C165.438642,17.0000841 164.455271,16.7636138 163.69394,16.2906659 C162.932609,15.817718 162.511577,15.1111906 162.430829,14.1710625 L165.112777,14.1710625 C165.181988,14.4594454 165.294456,14.6670779 165.450183,14.7939664 C165.715495,15.018905 166.162482,15.1313726 166.791156,15.1313726 C167.679376,15.1313726 168.273435,14.8343427 168.573353,14.240274 C168.769454,13.8596087 168.867503,13.2194084 168.867503,12.3196539 L168.867503,11.7140529 C168.631029,12.1177889 168.377255,12.4205863 168.106176,12.6224543 C167.615925,12.997352 166.978608,13.1847981 166.194207,13.1847981 C164.982999,13.1847981 164.015489,12.7594398 163.291648,11.9087103 C162.567807,11.0579809 162.205892,9.90590872 162.205892,8.45245914 C162.205892,7.05091848 162.55483,5.8728922 163.252716,4.91834496 C163.950603,3.96379771 164.939741,3.48653125 166.220161,3.48653125 C166.693109,3.48653125 167.10549,3.55862588 167.457317,3.70281731 Z M176.000617,6.03005529 C175.686279,6.38765003 175.48874,6.87212595 175.407993,7.4834976 L179.240582,7.4834976 C179.200208,6.83175236 179.002669,6.33718318 178.647958,5.99977524 C178.293247,5.66236731 177.85347,5.49366587 177.328613,5.49366587 C176.757615,5.49366587 176.314954,5.67246056 176.000617,6.03005529 Z M179.448216,3.90180048 C180.076891,4.19595099 180.595972,4.66024042 181.005476,5.2946827 C181.374606,5.85414543 181.61396,6.50299711 181.723546,7.24125722 C181.78699,7.6738315 181.812944,8.29672911 181.801409,9.10996876 L175.347433,9.10996876 C175.382039,10.0558645 175.679069,10.7191351 176.238531,11.0998005 C176.578823,11.3362744 176.988321,11.4545096 177.467036,11.4545096 C177.97459,11.4545096 178.386971,11.3103204 178.704192,11.0219375 C178.877222,10.8662108 179.030063,10.6499269 179.162719,10.3730793 L181.680289,10.3730793 C181.616844,10.9325421 181.325582,11.5006478 180.806493,12.0774135 C179.999021,12.9944709 178.868577,13.4529928 177.415128,13.4529928 C176.215455,13.4529928 175.157106,13.0665656 174.240048,12.2936995 C173.322991,11.5208335 172.864469,10.2635031 172.864469,8.52167068 C172.864469,6.88942374 173.278292,5.63786093 174.105951,4.76694472 C174.93361,3.8960285 176.00782,3.46057693 177.328613,3.46057693 C178.113014,3.46057693 178.819542,3.60764997 179.448216,3.90180048 Z M182.493524,5.55422597 L182.493524,3.79798318 L183.808543,3.79798318 L183.808543,1.16794471 L186.24825,1.16794471 L186.24825,3.79798318 L187.779555,3.79798318 L187.779555,5.55422597 L186.24825,5.55422597 L186.24825,10.5374567 C186.24825,10.9238898 186.297274,11.1646858 186.395325,11.2598522 C186.493375,11.3550185 186.793288,11.402601 187.295075,11.402601 C187.370054,11.402601 187.449358,11.4011591 187.532989,11.3982752 C187.61662,11.3953914 187.698808,11.3910657 187.779555,11.3852981 L187.779555,13.2280553 L186.611611,13.2713125 C185.446544,13.3116861 184.650619,13.1098211 184.223813,12.6657115 C183.946965,12.3830964 183.808543,11.9476448 183.808543,11.3593438 L183.808543,5.55422597 L182.493524,5.55422597 Z M202.638408,10.0702789 C203.258431,9.29164515 203.568438,8.18427161 203.568438,6.74812501 C203.568438,5.31774606 203.258431,4.21181441 202.638408,3.43029688 C202.018384,2.64877935 201.180645,2.25802644 200.125164,2.25802644 C199.069682,2.25802644 198.227617,2.64733745 197.598942,3.42597116 C196.970268,4.20460486 196.655935,5.3119784 196.655935,6.74812501 C196.655935,8.18427161 196.970268,9.29164515 197.598942,10.0702789 C198.227617,10.8489126 199.069682,11.2382236 200.125164,11.2382236 C201.180645,11.2382236 202.018384,10.8489126 202.638408,10.0702789 Z M204.30381,12.0082019 C203.340612,13.0002389 201.947743,13.49625 200.125164,13.49625 C198.302584,13.49625 196.909716,13.0002389 195.946517,12.0082019 C194.654562,10.7912263 194.008594,9.03788485 194.008594,6.74812501 C194.008594,4.4122239 194.654562,2.65888246 195.946517,1.48804808 C196.909716,0.496011066 198.302584,0 200.125164,0 C201.947743,0 203.340612,0.496011066 204.30381,1.48804808 C205.589998,2.65888246 206.233082,4.4122239 206.233082,6.74812501 C206.233082,9.03788485 205.589998,10.7912263 204.30381,12.0082019 Z M211.968988,0.272520433 C212.095877,0.281171918 212.268904,0.294148952 212.488075,0.311451923 L212.488075,2.31858654 C212.349651,2.30128357 212.117506,2.28830654 211.791634,2.27965505 C211.465761,2.27100356 211.240826,2.3430982 211.116821,2.49594111 C210.992816,2.64878402 210.930815,2.81748546 210.930815,3.00205048 L210.930815,3.79798318 L212.548635,3.79798318 L212.548635,5.53692308 L210.930815,5.53692308 L210.930815,13.1415409 L208.473805,13.1415409 L208.473805,5.53692308 L207.098226,5.53692308 L207.098226,3.79798318 L208.447851,3.79798318 L208.447851,3.19238221 C208.447851,2.18304223 208.617994,1.48804998 208.958286,1.10738462 C209.315881,0.542154226 210.178133,0.259543269 211.545067,0.259543269 C211.700794,0.259543269 211.8421,0.263868947 211.968988,0.272520433 Z M217.869272,0.272520433 C217.99616,0.281171918 218.169187,0.294148952 218.388358,0.311451923 L218.388358,2.31858654 C218.249935,2.30128357 218.01779,2.28830654 217.691917,2.27965505 C217.366045,2.27100356 217.141109,2.3430982 217.017105,2.49594111 C216.8931,2.64878402 216.831099,2.81748546 216.831099,3.00205048 L216.831099,3.79798318 L218.448918,3.79798318 L218.448918,5.53692308 L216.831099,5.53692308 L216.831099,13.1415409 L214.374089,13.1415409 L214.374089,5.53692308 L212.99851,5.53692308 L212.99851,3.79798318 L214.348135,3.79798318 L214.348135,3.19238221 C214.348135,2.18304223 214.518278,1.48804998 214.85857,1.10738462 C215.216165,0.542154226 216.078416,0.259543269 217.445351,0.259543269 C217.601078,0.259543269 217.742383,0.263868947 217.869272,0.272520433 Z M222.402628,2.58678125 L219.902361,2.58678125 L219.902361,0.311451923 L222.402628,0.311451923 L222.402628,2.58678125 Z M219.902361,3.71146875 L222.402628,3.71146875 L222.402628,13.1415409 L219.902361,13.1415409 L219.902361,3.71146875 Z M230.422515,7.0941827 C230.376373,6.74235562 230.258138,6.42513924 230.067805,6.14252404 C229.790958,5.76185868 229.361274,5.57152885 228.778741,5.57152885 C227.948198,5.57152885 227.380092,5.98391014 227.074406,6.8086851 C226.912912,7.24702704 226.832166,7.82955166 226.832166,8.55627645 C226.832166,9.24839529 226.912912,9.80496585 227.074406,10.2260048 C227.368557,11.0104062 227.922244,11.402601 228.735483,11.402601 C229.312249,11.402601 229.721747,11.2468766 229.963988,10.9354231 C230.20623,10.6239696 230.353303,10.2202397 230.405212,9.72422116 L232.922781,9.72422116 C232.865105,10.4740166 232.594029,11.1834278 232.109546,11.852476 C231.33668,12.9310278 230.191817,13.4702957 228.674923,13.4702957 C227.158029,13.4702957 226.042005,13.0204252 225.326815,12.1206707 C224.611626,11.2209162 224.254036,10.0529831 224.254036,8.61683654 C224.254036,6.99612491 224.649115,5.73591075 225.439284,4.83615625 C226.229453,3.93640175 227.319524,3.48653125 228.709529,3.48653125 C229.891899,3.48653125 230.859409,3.7518395 231.612088,4.28246395 C232.364767,4.81308839 232.810312,5.75031861 232.948736,7.0941827 L230.422515,7.0941827 Z M237.036542,6.03005529 C236.722205,6.38765003 236.524666,6.87212595 236.443918,7.4834976 L240.276507,7.4834976 C240.236134,6.83175236 240.038595,6.33718318 239.683884,5.99977524 C239.329173,5.66236731 238.889395,5.49366587 238.364539,5.49366587 C237.793541,5.49366587 237.35088,5.67246056 237.036542,6.03005529 Z M240.484142,3.90180048 C241.112817,4.19595099 241.631898,4.66024042 242.041402,5.2946827 C242.410532,5.85414543 242.649886,6.50299711 242.759471,7.24125722 C242.822916,7.6738315 242.84887,8.29672911 242.837334,9.10996876 L236.383358,9.10996876 C236.417964,10.0558645 236.714994,10.7191351 237.274457,11.0998005 C237.614749,11.3362744 238.024246,11.4545096 238.502962,11.4545096 C239.010516,11.4545096 239.422897,11.3103204 239.740118,11.0219375 C239.913148,10.8662108 240.065988,10.6499269 240.198644,10.3730793 L242.716214,10.3730793 C242.65277,10.9325421 242.361508,11.5006478 241.842418,12.0774135 C241.034946,12.9944709 239.904503,13.4529928 238.451053,13.4529928 C237.25138,13.4529928 236.193031,13.0665656 235.275974,12.2936995 C234.358916,11.5208335 233.900394,10.2635031 233.900394,8.52167068 C233.900394,6.88942374 234.314218,5.63786093 235.141876,4.76694472 C235.969535,3.8960285 237.043745,3.46057693 238.364539,3.46057693 C239.14894,3.46057693 239.855467,3.60764997 240.484142,3.90180048 Z" id="Congressional-Budget-Office"></path>
                    </g>
                </g>
                <g id="cbo_logo_white" fill-rule="nonzero">
                    <path d="M41.1019569,26.0497367 C40.6683192,35.9574368 32.5579146,43.7236564 22.7865496,43.5878847 C12.676215,43.5878847 4.47114229,35.5038187 4.47114229,25.5250497 L4.47114229,12.2815618 C1.58496249,16.0762391 0.0133204647,20.7314303 -3.5746959e-15,25.5250497 C-1.19263041e-15,37.8940593 10.2060764,47.9991418 22.7865496,47.9991418 C35.2329842,47.9991418 45.2475771,38.1952685 45.5539508,26.0303038 L41.1019569,26.0303038 L41.1019569,26.0497367 Z M45.5730992,24.8934821 C45.2284287,12.7770995 35.1563908,3.06067402 22.7865496,3.06067402 C18.7018351,3.07785115 14.6922245,4.17636281 11.1539203,6.24766158 L11.1539203,11.5042478 C14.4856335,8.89208677 18.5763985,7.47407033 22.7865496,7.47193119 C32.5360731,7.35024777 40.6332539,15.0782871 41.1115311,24.961497 L45.5730992,24.8934821 Z" id="Shape"></path>
                    <path d="M22.7386787,14.2928619 C16.5380886,14.2063621 11.4398958,19.2324728 11.3454039,25.5250497 C11.3882594,28.5479213 12.6127719,31.4296694 14.7494942,33.536181 C16.8862165,35.6426927 19.7600699,36.8013647 22.7386787,36.7572376 C28.9392688,36.8437373 34.0374616,31.8176266 34.1319535,25.5250497 C34.0374616,19.2324728 28.9392688,14.2063621 22.7386787,14.2928619 L22.7386787,14.2928619 Z M22.7386787,32.2973983 C19.059821,32.2067003 16.14116,29.1225822 16.2003816,25.3884494 C16.2596033,21.6543165 19.2745526,18.6671199 22.9543808,18.6966209 C26.6342091,18.7261219 29.6022807,21.7612841 29.6033661,25.4959004 C29.5857218,27.3229492 28.8515967,29.0675901 27.5633497,30.3439787 C26.2751028,31.6203673 24.5388852,32.3233295 22.7386787,32.2973983 L22.7386787,32.2973983 Z" id="Shape"></path>
                    <path d="M22.7386787,8.55045441 C17.9534971,8.53139921 13.3718793,10.5135789 10.0720379,14.0305184 L10.0720379,0 L5.52430215,0 L5.52430215,25.5250497 L5.52430215,25.5250497 C5.5898405,30.0967278 7.44244863,34.4546822 10.6744679,37.6399634 C13.9064872,40.8252446 18.2530909,42.5768555 22.7578271,42.5093614 C27.2625633,42.5768555 31.6091669,40.8252446 34.8411862,37.6399634 C38.0732055,34.4546822 39.9258136,30.0967278 39.991352,25.5250497 C39.9233263,20.9516489 38.0669752,16.5932044 34.8310724,13.4094578 C31.5951696,10.2257111 27.2450704,8.47774071 22.7386787,8.55045441 L22.7386787,8.55045441 Z M22.7386787,38.0398057 C15.831113,38.1370904 10.1526501,32.535186 10.0528895,25.5250497 L10.0528895,25.5250497 L10.0528895,24.8060342 C10.5389366,18.0879928 16.1019047,12.9195894 22.7386787,13.0200101 C29.6425612,12.9226978 35.3194788,18.5187297 35.4244679,25.5250497 C35.3247073,32.535186 29.6462443,38.1370904 22.7386787,38.0398057 L22.7386787,38.0398057 Z" id="Shape"></path>
                </g>
            </g>
        </g>
    </g>
</svg>